<svg width="100" height="100" viewBox="0 0 100 100" fill="none" xmlns="http://www.w3.org/2000/svg">
<rect width="100" height="100" rx="50" fill="#E6EACF"/>
<path d="M38.5365 76.9977C44.6059 79.73 50.2437 80.3027 55.9721 79.5827L55.6456 77.1898C50.1127 77.7873 45.3649 77.2642 39.5874 74.6634C25.6979 68.4107 20.5815 53.8951 26.44 40.881C32.2461 27.9836 46.7268 22.0093 60.3245 28.1306C73.6304 34.1205 78.7177 47.9211 73.8574 58.7176C70.3633 66.4794 65.4313 69.1721 61.6379 67.4645C59.2452 66.3873 58.5276 64.2395 59.3946 62.3136C59.7887 61.4382 60.2148 60.6475 60.784 59.8509L70.2466 46.0027L61.8314 40.53L59.5285 43.7746C59.0883 40.6989 57.4458 37.6433 53.6525 35.9357C46.7077 32.8094 37.6813 36.9577 33.9245 45.3031C30.7193 52.4229 33.2543 59.1087 39.3236 61.841C42.9419 63.4698 46.4729 62.9538 49.8465 61.3843C50.17 64.4076 51.9351 67.6586 56.8372 69.8654C63.1984 72.729 71.5534 70.384 76.3085 59.821C81.6942 47.8573 75.8484 32.3115 61.3753 25.7962C46.6688 19.1758 30.3204 25.713 23.989 39.7776C17.6312 53.9006 23.4798 70.2197 38.5365 76.9977ZM45.7883 55.2761C43.3372 54.1726 42.2636 51.7242 43.5772 48.8062C45.2323 45.1296 48.997 43.315 52.1484 44.7337C54.5995 45.8371 55.6467 48.3439 54.412 51.0868C52.7306 54.8218 48.8813 56.6684 45.7883 55.2761Z" fill="#A2A358"/>
</svg>
